<?xml version="1.0" encoding="utf-8"?>
<!-- Generator: Adobe Illustrator 22.0.1, SVG Export Plug-In . SVG Version: 6.00 Build 0)  -->
<svg version="1.1" id="Layer_1" xmlns="http://www.w3.org/2000/svg" xmlns:xlink="http://www.w3.org/1999/xlink" x="0px" y="0px"
	 width="100px" height="100px" viewBox="0 0 100 100" style="enable-background:new 0 0 100 100;" xml:space="preserve">
<style type="text/css">
	.st0{fill:none;stroke:#FFFFFF;stroke-width:1.2;stroke-miterlimit:10;}
	.st1{fill:none;stroke:#FFFFFF;stroke-width:1.464;stroke-linejoin:bevel;stroke-miterlimit:10;}
</style>
<g>
	<line class="st0" x1="25" y1="20.3" x2="25" y2="29.7"/>
	<line class="st0" x1="29.7" y1="25" x2="20.3" y2="25"/>
	<circle class="st0" cx="25" cy="25" r="9.4"/>
</g>
<g>
	<g transform="translate(0,-952.36218)">
		<path class="st1" d="M58.7,967.6c-0.6,0-1.1,0.5-1.1,1.1v1.3c-1.1,0.4-2,1-2.8,1.7l-1.1-0.6c-0.5-0.2-1.2-0.1-1.5,0.5l-1.3,2.3
			c-0.2,0.5-0.1,1.2,0.5,1.5l1.1,0.6c-0.1,0.5-0.1,1-0.1,1.5s0,1,0.1,1.5l-1.1,0.6c-0.5,0.2-0.7,1-0.5,1.5l1.3,2.3
			c0.2,0.5,1,0.7,1.5,0.5l1.1-0.6c0.9,0.7,1.7,1.3,2.8,1.7v1.3c0,0.6,0.5,1.1,1.1,1.1h2.7c0.6,0,1.1-0.5,1.1-1.1V985
			c1.1-0.4,2-1,2.8-1.7l1.1,0.6c0.5,0.2,1.2,0.1,1.5-0.5l1.3-2.3c0.2-0.5,0.1-1.2-0.5-1.5l-1.1-0.6c0.1-0.5,0.1-1,0.1-1.5
			s0-1-0.1-1.5l1.1-0.6c0.5-0.2,0.7-1,0.5-1.5l-1.3-2.3c-0.2-0.5-1-0.7-1.5-0.5l-1.1,0.6c-0.9-0.7-1.7-1.3-2.8-1.7v-1.3
			c0-0.6-0.5-1.1-1.1-1.1H58.7L58.7,967.6z"/>
	</g>
	<circle class="st1" cx="60" cy="25" r="2.3"/>
</g>
</svg>
